<?xml version="1.0" encoding="UTF-8" standalone="no"?>
<!-- Created with Inkscape (http://www.inkscape.org/) -->

<svg
   xmlns:dc="http://purl.org/dc/elements/1.1/"
   xmlns:cc="http://creativecommons.org/ns#"
   xmlns:rdf="http://www.w3.org/1999/02/22-rdf-syntax-ns#"
   xmlns:svg="http://www.w3.org/2000/svg"
   xmlns="http://www.w3.org/2000/svg"
   version="1.1"
   width="131.59375"
   height="131.59375"
   id="svg2">
  <defs
     id="defs4" />
  <metadata
     id="metadata7">
    <rdf:RDF>
      <cc:Work
         rdf:about="">
        <dc:format>image/svg+xml</dc:format>
        <dc:type
           rdf:resource="http://purl.org/dc/dcmitype/StillImage" />
        <dc:title></dc:title>
      </cc:Work>
    </rdf:RDF>
  </metadata>
  <g
     transform="translate(-5.0625,-12.15625)"
     id="layer1">
    <rect
       width="127.55904"
       height="127.55905"
       ry="6.3779602"
       x="7.0866227"
       y="14.173206"
       id="rect3777"
       style="fill:none;stroke:#000000;stroke-width:4.04999924;stroke-linecap:butt;stroke-linejoin:round;stroke-miterlimit:4;stroke-opacity:1;stroke-dasharray:none;stroke-dashoffset:0" />
    <path
       d="m 88.582674,77.952736 a 17.716532,17.716532 0 1 1 -35.433063,0 17.716532,17.716532 0 1 1 35.433063,0 z"
       transform="matrix(0.60000009,0,0,0.60000009,67.322828,31.181085)"
       id="path3804-4"
       style="fill:#000000;fill-opacity:1;fill-rule:evenodd;stroke:none" />
    <path
       d="m 88.582674,77.952736 a 17.716532,17.716532 0 1 1 -35.433063,0 17.716532,17.716532 0 1 1 35.433063,0 z"
       transform="matrix(0.60000009,0,0,0.60000009,67.322827,-7.7952659)"
       id="path3804-1"
       style="fill:#000000;fill-opacity:1;fill-rule:evenodd;stroke:none" />
    <path
       d="m 88.582674,77.952736 a 17.716532,17.716532 0 1 1 -35.433063,0 17.716532,17.716532 0 1 1 35.433063,0 z"
       transform="matrix(0.60000009,0,0,0.60000009,-10.629928,-7.7952921)"
       id="path3804-0"
       style="fill:#000000;fill-opacity:1;fill-rule:evenodd;stroke:none" />
    <path
       d="m 88.582674,77.952736 a 17.716532,17.716532 0 1 1 -35.433063,0 17.716532,17.716532 0 1 1 35.433063,0 z"
       transform="matrix(0.60000009,0,0,0.60000009,-10.629928,31.181086)"
       id="path3804-9"
       style="fill:#000000;fill-opacity:1;fill-rule:evenodd;stroke:none" />
    <path
       d="m 88.582674,77.952736 a 17.716532,17.716532 0 1 1 -35.433063,0 17.716532,17.716532 0 1 1 35.433063,0 z"
       transform="matrix(0.60000009,0,0,0.60000009,-10.629928,70.157464)"
       id="path3804-97"
       style="fill:#000000;fill-opacity:1;fill-rule:evenodd;stroke:none" />
    <path
       d="m 88.582674,77.952736 a 17.716532,17.716532 0 1 1 -35.433063,0 17.716532,17.716532 0 1 1 35.433063,0 z"
       transform="matrix(0.60000009,0,0,0.60000009,67.322829,70.157464)"
       id="path3804-43"
       style="fill:#000000;fill-opacity:1;fill-rule:evenodd;stroke:none" />
  </g>
</svg>
